# Blender v2.79 (sub 0) OBJ File: 'crate_01.blend'
# www.blender.org
mtllib crate_01.mtl
o Cube
v 0.478223 0.500432 -0.500742
v 0.478007 0.500000 0.499689
v -0.521993 0.500000 0.499689
v -0.522209 0.500432 -0.500743
v 0.478115 0.500216 -0.000526
v 0.353027 0.500054 0.374635
v 0.353149 0.500378 -0.375688
v -0.397135 0.500378 -0.375689
v -0.397013 0.500054 0.374635
v -0.297733 0.475162 -0.375473
v 0.353027 0.474838 0.374852
v 0.353149 0.475162 -0.375473
v -0.397135 0.475162 -0.375473
v 0.353043 0.474880 0.277639
v -0.397013 0.474838 0.374851
v 0.256763 0.474838 0.374852
v -0.397118 0.475118 -0.273737
v -0.297733 0.491760 -0.375466
v 0.353043 0.491478 0.277646
v 0.353027 0.491436 0.374859
v -0.397135 0.491760 -0.375466
v 0.256763 0.491436 0.374859
v -0.397118 0.491716 -0.273730
v -0.397118 -0.492354 0.273730
v 0.256763 -0.492074 -0.374859
v -0.397135 -0.492398 0.375466
v 0.353027 -0.492074 -0.374859
v 0.353043 -0.492116 -0.277646
v -0.297733 -0.492398 0.375466
v -0.397118 -0.475756 0.273737
v 0.256763 -0.475476 -0.374852
v -0.397013 -0.475476 -0.374851
v 0.353043 -0.475518 -0.277639
v -0.397135 -0.475800 0.375473
v 0.353149 -0.475800 0.375473
v 0.353027 -0.475476 -0.374852
v -0.297733 -0.475800 0.375473
v -0.397013 -0.500692 -0.374635
v -0.397135 -0.501016 0.375689
v 0.353149 -0.501016 0.375688
v 0.353027 -0.500692 -0.374635
v 0.478115 -0.500854 0.000526
v -0.522209 -0.501070 0.500743
v -0.521993 -0.500638 -0.499689
v 0.478007 -0.500638 -0.499689
v 0.478223 -0.501070 0.500742
v 0.478223 0.500432 -0.500742
v 0.478007 0.500000 0.499689
v -0.521993 0.500000 0.499689
v -0.522209 0.500432 -0.500743
v 0.478115 0.500216 -0.000526
v 0.353027 0.500054 0.374635
v 0.353149 0.500378 -0.375688
v -0.397135 0.500378 -0.375689
v -0.397013 0.500054 0.374635
v -0.297733 0.475162 -0.375473
v 0.353027 0.474838 0.374852
v 0.353149 0.475162 -0.375473
v -0.397135 0.475162 -0.375473
v 0.353043 0.474880 0.277639
v -0.397013 0.474838 0.374851
v 0.256763 0.474838 0.374852
v -0.397118 0.475118 -0.273737
v -0.297733 0.491760 -0.375466
v 0.353043 0.491478 0.277646
v 0.353027 0.491436 0.374859
v -0.397135 0.491760 -0.375466
v 0.256763 0.491436 0.374859
v -0.397118 0.491716 -0.273730
v -0.397118 -0.492354 0.273730
v 0.256763 -0.492074 -0.374859
v -0.397135 -0.492398 0.375466
v 0.353027 -0.492074 -0.374859
v 0.353043 -0.492116 -0.277646
v -0.297733 -0.492398 0.375466
v -0.397118 -0.475756 0.273737
v 0.256763 -0.475476 -0.374852
v -0.397013 -0.475476 -0.374851
v 0.353043 -0.475518 -0.277639
v -0.397135 -0.475800 0.375473
v 0.353149 -0.475800 0.375473
v 0.353027 -0.475476 -0.374852
v -0.297733 -0.475800 0.375473
v -0.397013 -0.500692 -0.374635
v -0.397135 -0.501016 0.375689
v 0.353149 -0.501016 0.375688
v 0.353027 -0.500692 -0.374635
v 0.478115 -0.500854 0.000526
v -0.522209 -0.501070 0.500743
v -0.521993 -0.500638 -0.499689
v 0.478007 -0.500638 -0.499689
v 0.478223 -0.501070 0.500742
v 0.477629 -0.500599 -0.499407
v 0.477197 -0.500383 0.501025
v 0.477197 0.499617 0.501024
v 0.477629 0.499833 -0.499408
v 0.477413 -0.500491 0.000809
v 0.477251 -0.375403 0.375970
v 0.477575 -0.375525 -0.374353
v 0.477575 0.374759 -0.374354
v 0.477251 0.374637 0.375970
v 0.452359 0.275357 -0.374138
v 0.452035 -0.375403 0.376187
v 0.452359 -0.375525 -0.374138
v 0.452359 0.374759 -0.374138
v 0.452077 -0.375419 0.278974
v 0.452035 0.374637 0.376186
v 0.452035 -0.279139 0.376187
v 0.452315 0.374742 -0.272402
v 0.468957 0.275357 -0.374131
v 0.468675 -0.375419 0.278981
v 0.468633 -0.375403 0.376194
v 0.468957 0.374759 -0.374131
v 0.468633 -0.279139 0.376194
v 0.468913 0.374742 -0.272395
v -0.515158 0.374742 0.275065
v -0.514877 -0.279139 -0.373524
v -0.515202 0.374759 0.376801
v -0.514877 -0.375403 -0.373524
v -0.514920 -0.375419 -0.276311
v -0.515202 0.275357 0.376801
v -0.498559 0.374742 0.275072
v -0.498279 -0.279139 -0.373517
v -0.498279 0.374637 -0.373516
v -0.498321 -0.375419 -0.276304
v -0.498603 0.374759 0.376808
v -0.498603 -0.375525 0.376808
v -0.498279 -0.375403 -0.373517
v -0.498603 0.275357 0.376808
v -0.523495 0.374637 -0.373300
v -0.523819 0.374759 0.377024
v -0.523819 -0.375525 0.377023
v -0.523495 -0.375403 -0.373300
v -0.523657 -0.500491 0.001862
v -0.523873 0.499833 0.502078
v -0.523441 0.499617 -0.498354
v -0.523441 -0.500383 -0.498354
v -0.523873 -0.500599 0.502078
v -0.523865 -0.500599 -0.499416
v 0.476567 -0.500383 -0.498984
v 0.476567 0.499617 -0.498984
v -0.523865 0.499833 -0.499416
v -0.023649 -0.500491 -0.499200
v 0.351513 -0.375403 -0.499038
v -0.398811 -0.375525 -0.499362
v -0.398811 0.374759 -0.499362
v 0.351513 0.374637 -0.499038
v -0.398595 0.275357 -0.474146
v 0.351729 -0.375403 -0.473822
v -0.398595 -0.375525 -0.474146
v -0.398595 0.374759 -0.474146
v 0.254517 -0.375419 -0.473864
v 0.351729 0.374637 -0.473822
v 0.351729 -0.279139 -0.473822
v -0.296859 0.374742 -0.474102
v -0.398588 0.275357 -0.490744
v 0.254524 -0.375419 -0.490462
v 0.351737 -0.375403 -0.490420
v -0.398588 0.374759 -0.490744
v 0.351737 -0.279139 -0.490420
v -0.296852 0.374742 -0.490700
v 0.250608 0.374742 0.493370
v -0.397981 -0.279139 0.493090
v 0.352343 0.374759 0.493414
v -0.397981 -0.375403 0.493090
v -0.300768 -0.375419 0.493132
v 0.352344 0.275357 0.493414
v 0.250615 0.374742 0.476772
v -0.397974 -0.279139 0.476492
v -0.397974 0.374637 0.476492
v -0.300761 -0.375419 0.476534
v 0.352351 0.374759 0.476816
v 0.352350 -0.375525 0.476816
v -0.397974 -0.375403 0.476492
v 0.352351 0.275357 0.476816
v -0.397757 0.374637 0.501708
v 0.352566 0.374759 0.502032
v 0.352566 -0.375525 0.502032
v -0.397758 -0.375403 0.501708
v -0.022596 -0.500491 0.501870
v 0.477620 0.499833 0.502086
v -0.522811 0.499617 0.501654
v -0.522812 -0.500383 0.501654
v 0.477620 -0.500599 0.502086
vt 0.875000 0.125000
vt 0.875000 0.125000
vt 0.775636 0.125000
vt 1.000000 0.000000
vt 1.000000 1.000000
vt 0.125000 0.125000
vt 0.125000 0.125000
vt 0.125000 0.777829
vt 0.875000 0.226692
vt 0.221259 0.875000
vt 0.875000 0.875000
vt 0.875000 0.875000
vt 0.125000 0.875000
vt 0.000000 1.000000
vt 0.000000 0.500000
vt 0.775636 0.125000
vt 0.875000 0.226692
vt 0.221259 0.875000
vt 0.125000 0.777829
vt 0.875000 0.125000
vt 0.125000 0.875000
vt 0.125000 0.875000
vt 0.875000 0.226692
vt 0.221259 0.875000
vt 0.125000 0.777829
vt 0.125000 0.875000
vt 0.000000 1.000000
vt 0.000000 0.500000
vt 0.125000 0.125000
vt 0.775636 0.125000
vt 0.125000 0.777829
vt 0.221259 0.875000
vt 0.875000 0.875000
vt 0.875000 0.875000
vt 0.875000 0.226692
vt 0.875000 0.125000
vt 0.875000 0.125000
vt 0.125000 0.125000
vt 1.000000 0.000000
vt 0.875000 0.125000
vt 0.875000 0.125000
vt 0.775636 0.125000
vt 1.000000 0.000000
vt 1.000000 1.000000
vt 0.125000 0.125000
vt 0.125000 0.125000
vt 0.125000 0.777829
vt 0.875000 0.226692
vt 0.221259 0.875000
vt 0.875000 0.875000
vt 0.875000 0.875000
vt 0.125000 0.875000
vt 0.000000 1.000000
vt 0.000000 0.500000
vt 0.775636 0.125000
vt 0.875000 0.226692
vt 0.221259 0.875000
vt 0.125000 0.777829
vt 0.875000 0.125000
vt 0.125000 0.875000
vt 0.125000 0.875000
vt 0.875000 0.226692
vt 0.221259 0.875000
vt 0.125000 0.777829
vt 0.125000 0.875000
vt 0.000000 1.000000
vt 0.000000 0.500000
vt 0.125000 0.125000
vt 0.775636 0.125000
vt 0.125000 0.777829
vt 0.221259 0.875000
vt 0.875000 0.875000
vt 0.875000 0.875000
vt 0.875000 0.226692
vt 0.875000 0.125000
vt 0.875000 0.125000
vt 0.125000 0.125000
vt 1.000000 0.000000
vt 0.875000 0.125000
vt 0.875000 0.125000
vt 0.775636 0.125000
vt 1.000000 0.000000
vt 1.000000 1.000000
vt 0.125000 0.125000
vt 0.125000 0.125000
vt 0.125000 0.777829
vt 0.875000 0.226692
vt 0.221259 0.875000
vt 0.875000 0.875000
vt 0.875000 0.875000
vt 0.125000 0.875000
vt 0.000000 1.000000
vt 0.000000 0.500000
vt 0.775636 0.125000
vt 0.875000 0.226692
vt 0.221259 0.875000
vt 0.125000 0.777829
vt 0.875000 0.125000
vt 0.125000 0.875000
vt 0.125000 0.875000
vt 0.875000 0.226692
vt 0.221259 0.875000
vt 0.125000 0.777829
vt 0.125000 0.875000
vt 0.000000 1.000000
vt 0.000000 0.500000
vt 0.125000 0.125000
vt 0.775636 0.125000
vt 0.125000 0.777829
vt 0.221259 0.875000
vt 0.875000 0.875000
vt 0.875000 0.875000
vt 0.875000 0.226692
vt 0.875000 0.125000
vt 0.875000 0.125000
vt 0.125000 0.125000
vt 1.000000 0.000000
vt 1.000000 1.000000
vt 0.775636 0.125000
vt 0.875000 0.125000
vt 0.875000 0.125000
vt 0.775636 0.125000
vt 1.000000 0.000000
vt 1.000000 1.000000
vt 0.125000 0.125000
vt 0.125000 0.125000
vt 0.125000 0.777829
vt 0.875000 0.226692
vt 0.221259 0.875000
vt 0.875000 0.875000
vt 0.875000 0.875000
vt 0.125000 0.875000
vt 0.000000 1.000000
vt 0.000000 0.500000
vt 0.775636 0.125000
vt 0.875000 0.226692
vt 0.221259 0.875000
vt 0.125000 0.777829
vt 0.875000 0.125000
vt 0.125000 0.875000
vt 0.125000 0.875000
vt 0.875000 0.226692
vt 0.221259 0.875000
vt 0.125000 0.777829
vt 0.125000 0.875000
vt 0.000000 1.000000
vt 0.000000 0.500000
vt 0.125000 0.125000
vt 0.775636 0.125000
vt 0.125000 0.777829
vt 0.221259 0.875000
vt 0.875000 0.875000
vt 0.875000 0.875000
vt 0.875000 0.226692
vt 0.875000 0.125000
vt 0.875000 0.125000
vt 0.125000 0.125000
vt 1.000000 0.000000
vt 0.000000 0.000000
vt 0.125000 0.875000
vt 0.775636 0.125000
vt 0.875000 0.125000
vt 0.000000 0.000000
vt 0.125000 0.875000
vt 1.000000 1.000000
vt 0.000000 0.000000
vt 0.125000 0.875000
vt 0.775636 0.125000
vt 0.875000 0.125000
vt 0.000000 0.000000
vt 0.125000 0.875000
vt 1.000000 1.000000
vt 0.000000 0.000000
vt 0.125000 0.875000
vt 0.875000 0.125000
vt 0.000000 0.000000
vt 0.125000 0.875000
vt 0.000000 0.000000
vt 0.125000 0.875000
vt 0.775636 0.125000
vt 0.875000 0.125000
vt 0.000000 0.000000
vt 0.125000 0.875000
vt 1.000000 1.000000
vn 0.0000 0.0086 1.0000
vn -0.0000 1.0000 0.0004
vn -1.0000 0.0000 -0.0002
vn 1.0000 -0.0000 -0.0002
vn 0.0000 -0.0086 -1.0000
vn 0.0000 0.0004 -1.0000
vn -1.0000 0.0000 0.0002
vn 1.0000 0.0000 0.0002
vn -0.0000 -0.0004 1.0000
vn -0.7042 -0.0003 0.7100
vn 0.7084 0.0003 -0.7058
vn 0.0000 -1.0000 -0.0004
vn -0.7042 0.0003 -0.7100
vn 0.7084 -0.0003 0.7058
vn 0.0086 0.0000 1.0000
vn 1.0000 0.0000 0.0004
vn -0.0000 1.0000 -0.0002
vn -0.0000 -1.0000 -0.0002
vn -0.0086 -0.0000 -1.0000
vn 0.0004 0.0000 -1.0000
vn -0.0000 1.0000 0.0002
vn 0.0000 -1.0000 0.0002
vn -0.0004 0.0000 1.0000
vn -0.0003 0.7042 0.7100
vn 0.0003 -0.7084 -0.7058
vn -1.0000 0.0000 -0.0004
vn 0.0003 0.7042 -0.7100
vn -0.0003 -0.7084 0.7058
vn 1.0000 0.0000 -0.0086
vn -0.0002 1.0000 0.0000
vn -0.0002 -1.0000 0.0000
vn -1.0000 -0.0000 0.0086
vn 0.0002 1.0000 0.0000
vn 0.0002 -1.0000 -0.0000
vn 0.7100 0.7042 0.0003
vn -0.7058 -0.7084 -0.0003
vn -0.7100 0.7042 -0.0003
vn 0.7058 -0.7084 0.0003
usemtl Material
s off
f 8/1/1 13/2/1 10/3/1
f 4/4/2 3/5/2 8/1/2
f 7/6/3 12/7/3 14/8/3
f 17/9/4 13/2/4 8/1/4
f 16/10/5 15/11/5 9/12/5
f 12/7/2 10/3/2 14/8/2
f 6/13/2 2/14/2 5/15/2
f 13/2/6 18/16/6 10/3/6
f 23/17/2 22/18/2 19/19/2
f 16/10/2 17/9/2 15/11/2
f 13/2/7 23/17/7 21/20/7
f 14/8/8 20/21/8 11/22/8
f 11/22/9 22/18/9 16/10/9
f 16/10/10 23/17/10 17/9/10
f 14/8/11 18/16/11 19/19/11
f 24/23/12 25/24/12 28/25/12
f 41/26/12 45/27/12 42/28/12
f 35/29/12 37/30/12 33/31/12
f 31/32/1 32/33/1 38/34/1
f 30/35/8 34/36/8 39/37/8
f 40/38/7 35/29/7 33/31/7
f 38/34/12 39/37/12 43/39/12
f 39/37/5 34/36/5 37/30/5
f 31/32/12 30/35/12 32/33/12
f 31/32/13 24/23/13 30/35/13
f 37/30/14 28/25/14 33/31/14
f 54/40/1 59/41/1 56/42/1
f 50/43/2 49/44/2 54/40/2
f 53/45/3 58/46/3 60/47/3
f 63/48/4 59/41/4 54/40/4
f 62/49/5 61/50/5 55/51/5
f 58/46/2 56/42/2 60/47/2
f 52/52/2 48/53/2 51/54/2
f 59/41/6 64/55/6 56/42/6
f 69/56/2 68/57/2 65/58/2
f 62/49/2 63/48/2 61/50/2
f 59/41/7 69/56/7 67/59/7
f 60/47/8 66/60/8 57/61/8
f 57/61/9 68/57/9 62/49/9
f 62/49/10 69/56/10 63/48/10
f 60/47/11 64/55/11 65/58/11
f 70/62/12 71/63/12 74/64/12
f 87/65/12 91/66/12 88/67/12
f 81/68/12 83/69/12 79/70/12
f 77/71/1 78/72/1 84/73/1
f 76/74/8 80/75/8 85/76/8
f 86/77/7 81/68/7 79/70/7
f 84/73/12 85/76/12 89/78/12
f 85/76/5 80/75/5 83/69/5
f 77/71/12 76/74/12 78/72/12
f 77/71/13 70/62/13 76/74/13
f 83/69/14 74/64/14 79/70/14
f 100/79/15 105/80/15 102/81/15
f 96/82/16 95/83/16 100/79/16
f 99/84/17 104/85/17 106/86/17
f 109/87/18 105/80/18 100/79/18
f 108/88/19 107/89/19 101/90/19
f 104/85/16 102/81/16 106/86/16
f 98/91/16 94/92/16 97/93/16
f 105/80/20 110/94/20 102/81/20
f 115/95/16 114/96/16 111/97/16
f 108/88/16 109/87/16 107/89/16
f 105/80/21 115/95/21 113/98/21
f 106/86/22 112/99/22 103/100/22
f 108/88/23 112/99/23 114/96/23
f 109/87/24 114/96/24 115/95/24
f 102/81/25 111/97/25 106/86/25
f 116/101/26 117/102/26 120/103/26
f 133/104/26 137/105/26 134/106/26
f 127/107/26 129/108/26 125/109/26
f 123/110/15 124/111/15 130/112/15
f 122/113/22 126/114/22 131/115/22
f 132/116/21 127/107/21 125/109/21
f 135/117/26 136/118/26 131/115/26
f 131/115/19 126/114/19 129/108/19
f 123/110/26 122/113/26 124/111/26
f 123/110/27 116/101/27 122/113/27
f 125/109/28 121/119/28 120/103/28
f 146/120/29 151/121/29 148/122/29
f 142/123/20 141/124/20 146/120/20
f 145/125/30 150/126/30 152/127/30
f 155/128/31 151/121/31 146/120/31
f 154/129/32 153/130/32 147/131/32
f 150/126/20 148/122/20 152/127/20
f 144/132/20 140/133/20 143/134/20
f 151/121/26 156/135/26 148/122/26
f 161/136/20 160/137/20 157/138/20
f 154/129/20 155/128/20 153/130/20
f 151/121/33 161/136/33 159/139/33
f 152/127/34 158/140/34 149/141/34
f 154/129/16 158/140/16 160/137/16
f 154/129/35 161/136/35 155/128/35
f 148/122/36 157/138/36 152/127/36
f 162/142/23 163/143/23 166/144/23
f 179/145/23 183/146/23 180/147/23
f 173/148/23 175/149/23 171/150/23
f 169/151/29 170/152/29 176/153/29
f 168/154/34 172/155/34 177/156/34
f 178/157/33 173/148/33 171/150/33
f 176/153/23 177/156/23 181/158/23
f 177/156/32 172/155/32 175/149/32
f 169/151/23 168/154/23 170/152/23
f 169/151/37 162/142/37 168/154/37
f 175/149/38 166/144/38 171/150/38
f 12/7/1 7/6/1 10/3/1
f 7/6/1 8/1/1 10/3/1
f 7/6/2 1/159/2 4/4/2
f 3/5/2 2/14/2 6/13/2
f 3/5/2 6/13/2 9/12/2
f 8/1/2 7/6/2 4/4/2
f 3/5/2 9/12/2 8/1/2
f 11/22/3 6/13/3 14/8/3
f 6/13/3 7/6/3 14/8/3
f 8/1/4 9/12/4 17/9/4
f 9/12/4 15/11/4 17/9/4
f 9/12/5 6/13/5 16/10/5
f 6/13/5 11/22/5 16/10/5
f 1/159/2 7/6/2 5/15/2
f 7/6/2 6/13/2 5/15/2
f 13/2/6 21/20/6 18/16/6
f 20/21/2 19/19/2 22/18/2
f 19/19/2 18/16/2 23/17/2
f 18/16/2 21/20/2 23/17/2
f 13/2/7 17/9/7 23/17/7
f 14/8/8 19/19/8 20/21/8
f 11/22/9 20/21/9 22/18/9
f 16/10/10 22/18/10 23/17/10
f 14/8/11 10/3/11 18/16/11
f 27/160/12 28/25/12 25/24/12
f 28/25/12 29/161/12 24/23/12
f 29/161/12 26/162/12 24/23/12
f 46/163/12 40/38/12 42/28/12
f 40/38/12 41/26/12 42/28/12
f 38/34/1 41/26/1 31/32/1
f 41/26/1 36/164/1 31/32/1
f 39/37/8 38/34/8 30/35/8
f 38/34/8 32/33/8 30/35/8
f 36/164/7 41/26/7 33/31/7
f 41/26/7 40/38/7 33/31/7
f 40/38/12 46/163/12 43/39/12
f 44/165/12 45/27/12 41/26/12
f 44/165/12 41/26/12 38/34/12
f 39/37/12 40/38/12 43/39/12
f 44/165/12 38/34/12 43/39/12
f 35/29/5 40/38/5 37/30/5
f 40/38/5 39/37/5 37/30/5
f 31/32/13 25/24/13 24/23/13
f 37/30/14 29/161/14 28/25/14
f 58/46/1 53/45/1 56/42/1
f 53/45/1 54/40/1 56/42/1
f 53/45/2 47/166/2 50/43/2
f 49/44/2 48/53/2 52/52/2
f 49/44/2 52/52/2 55/51/2
f 54/40/2 53/45/2 50/43/2
f 49/44/2 55/51/2 54/40/2
f 57/61/3 52/52/3 60/47/3
f 52/52/3 53/45/3 60/47/3
f 54/40/4 55/51/4 63/48/4
f 55/51/4 61/50/4 63/48/4
f 55/51/5 52/52/5 62/49/5
f 52/52/5 57/61/5 62/49/5
f 47/166/2 53/45/2 51/54/2
f 53/45/2 52/52/2 51/54/2
f 59/41/6 67/59/6 64/55/6
f 66/60/2 65/58/2 68/57/2
f 65/58/2 64/55/2 69/56/2
f 64/55/2 67/59/2 69/56/2
f 59/41/7 63/48/7 69/56/7
f 60/47/8 65/58/8 66/60/8
f 57/61/9 66/60/9 68/57/9
f 62/49/10 68/57/10 69/56/10
f 60/47/11 56/42/11 64/55/11
f 73/167/12 74/64/12 71/63/12
f 74/64/12 75/168/12 70/62/12
f 75/168/12 72/169/12 70/62/12
f 92/170/12 86/77/12 88/67/12
f 86/77/12 87/65/12 88/67/12
f 84/73/1 87/65/1 77/71/1
f 87/65/1 82/171/1 77/71/1
f 85/76/8 84/73/8 76/74/8
f 84/73/8 78/72/8 76/74/8
f 82/171/7 87/65/7 79/70/7
f 87/65/7 86/77/7 79/70/7
f 86/77/12 92/170/12 89/78/12
f 90/172/12 91/66/12 87/65/12
f 90/172/12 87/65/12 84/73/12
f 85/76/12 86/77/12 89/78/12
f 90/172/12 84/73/12 89/78/12
f 81/68/5 86/77/5 83/69/5
f 86/77/5 85/76/5 83/69/5
f 77/71/13 71/63/13 70/62/13
f 83/69/14 75/168/14 74/64/14
f 104/85/15 99/84/15 102/81/15
f 99/84/15 100/79/15 102/81/15
f 99/84/16 93/173/16 96/82/16
f 95/83/16 94/92/16 98/91/16
f 95/83/16 98/91/16 101/90/16
f 100/79/16 99/84/16 96/82/16
f 95/83/16 101/90/16 100/79/16
f 103/100/17 98/91/17 106/86/17
f 98/91/17 99/84/17 106/86/17
f 100/79/18 101/90/18 109/87/18
f 101/90/18 107/89/18 109/87/18
f 101/90/19 98/91/19 108/88/19
f 98/91/19 103/100/19 108/88/19
f 93/173/16 99/84/16 97/93/16
f 99/84/16 98/91/16 97/93/16
f 105/80/20 113/98/20 110/94/20
f 112/99/16 111/97/16 114/96/16
f 111/97/16 110/94/16 115/95/16
f 110/94/16 113/98/16 115/95/16
f 105/80/21 109/87/21 115/95/21
f 106/86/22 111/97/22 112/99/22
f 108/88/23 103/100/23 112/99/23
f 109/87/24 108/88/24 114/96/24
f 102/81/25 110/94/25 111/97/25
f 119/174/26 120/103/26 117/102/26
f 120/103/26 121/119/26 116/101/26
f 121/119/26 118/175/26 116/101/26
f 138/176/26 132/116/26 134/106/26
f 132/116/26 133/104/26 134/106/26
f 130/112/15 133/104/15 123/110/15
f 133/104/15 128/177/15 123/110/15
f 131/115/22 130/112/22 122/113/22
f 130/112/22 124/111/22 122/113/22
f 128/177/21 133/104/21 125/109/21
f 133/104/21 132/116/21 125/109/21
f 132/116/26 138/176/26 131/115/26
f 138/176/26 135/117/26 131/115/26
f 136/118/26 137/105/26 133/104/26
f 136/118/26 133/104/26 130/112/26
f 136/118/26 130/112/26 131/115/26
f 127/107/19 132/116/19 129/108/19
f 132/116/19 131/115/19 129/108/19
f 123/110/27 117/102/27 116/101/27
f 125/109/28 129/108/28 121/119/28
f 150/126/29 145/125/29 148/122/29
f 145/125/29 146/120/29 148/122/29
f 145/125/20 139/178/20 142/123/20
f 141/124/20 140/133/20 147/131/20
f 140/133/20 144/132/20 147/131/20
f 146/120/20 145/125/20 142/123/20
f 141/124/20 147/131/20 146/120/20
f 149/141/30 144/132/30 152/127/30
f 144/132/30 145/125/30 152/127/30
f 146/120/31 147/131/31 155/128/31
f 147/131/31 153/130/31 155/128/31
f 147/131/32 144/132/32 154/129/32
f 144/132/32 149/141/32 154/129/32
f 139/178/20 145/125/20 143/134/20
f 145/125/20 144/132/20 143/134/20
f 151/121/26 159/139/26 156/135/26
f 158/140/20 157/138/20 160/137/20
f 157/138/20 156/135/20 161/136/20
f 156/135/20 159/139/20 161/136/20
f 151/121/33 155/128/33 161/136/33
f 152/127/34 157/138/34 158/140/34
f 154/129/16 149/141/16 158/140/16
f 154/129/35 160/137/35 161/136/35
f 148/122/36 156/135/36 157/138/36
f 165/179/23 166/144/23 163/143/23
f 166/144/23 167/180/23 162/142/23
f 167/180/23 164/181/23 162/142/23
f 184/182/23 178/157/23 180/147/23
f 178/157/23 179/145/23 180/147/23
f 176/153/29 179/145/29 169/151/29
f 179/145/29 174/183/29 169/151/29
f 177/156/34 176/153/34 168/154/34
f 176/153/34 170/152/34 168/154/34
f 174/183/33 179/145/33 171/150/33
f 179/145/33 178/157/33 171/150/33
f 178/157/23 184/182/23 181/158/23
f 182/184/23 183/146/23 179/145/23
f 182/184/23 179/145/23 176/153/23
f 177/156/23 178/157/23 181/158/23
f 182/184/23 176/153/23 181/158/23
f 173/148/32 178/157/32 175/149/32
f 178/157/32 177/156/32 175/149/32
f 169/151/37 163/143/37 162/142/37
f 175/149/38 167/180/38 166/144/38
